<mxfile host="drawio-plugin" modified="2021-11-15T09:18:16.816Z" agent="5.0 (X11; Linux x86_64) AppleWebKit/537.36 (KHTML, like Gecko) Chrome/89.0.4389.114 Safari/537.36" etag="buWb4mCuZw8htMLj27vI" version="14.7.4" type="embed" pages="6"><diagram id="5jAd6vqPjrp9riMwKww9" name="0001"><mxGraphModel dx="988" dy="729" grid="1" gridSize="10" guides="1" tooltips="1" connect="1" arrows="1" fold="1" page="1" pageScale="1" pageWidth="827" pageHeight="1169" math="0" shadow="0"><root><mxCell id="0"/><mxCell id="1" parent="0"/><mxCell id="yQNnCstJemZtDpDRW7JI-6" value="" style="edgeStyle=orthogonalEdgeStyle;rounded=0;orthogonalLoop=1;jettySize=auto;html=1;" parent="1" source="yQNnCstJemZtDpDRW7JI-1" target="yQNnCstJemZtDpDRW7JI-5" edge="1"><mxGeometry relative="1" as="geometry"/></mxCell><mxCell id="yQNnCstJemZtDpDRW7JI-1" value="A" style="rounded=0;whiteSpace=wrap;html=1;" parent="1" vertex="1"><mxGeometry x="130" y="130" width="120" height="60" as="geometry"/></mxCell><mxCell id="yQNnCstJemZtDpDRW7JI-5" value="B" style="whiteSpace=wrap;html=1;rounded=0;" parent="1" vertex="1"><mxGeometry x="130" y="270" width="120" height="60" as="geometry"/></mxCell></root></mxGraphModel></diagram><diagram id="4RwMTvpkGJybKEBWo5Cw" name="0002"><mxGraphModel dx="988" dy="729" grid="1" gridSize="10" guides="1" tooltips="1" connect="1" arrows="1" fold="1" page="1" pageScale="1" pageWidth="827" pageHeight="1169" math="0" shadow="0"><root><mxCell id="WsEtE5bpDhkpFEhNQE7J-0"/><mxCell id="WsEtE5bpDhkpFEhNQE7J-1" parent="WsEtE5bpDhkpFEhNQE7J-0"/><mxCell id="WsEtE5bpDhkpFEhNQE7J-4" value="" style="edgeStyle=orthogonalEdgeStyle;rounded=0;orthogonalLoop=1;jettySize=auto;html=1;" parent="WsEtE5bpDhkpFEhNQE7J-1" source="WsEtE5bpDhkpFEhNQE7J-2" target="WsEtE5bpDhkpFEhNQE7J-3" edge="1"><mxGeometry relative="1" as="geometry"/></mxCell><mxCell id="WsEtE5bpDhkpFEhNQE7J-8" style="orthogonalLoop=1;jettySize=auto;html=1;rounded=0;entryX=0.25;entryY=0;entryDx=0;entryDy=0;" parent="WsEtE5bpDhkpFEhNQE7J-1" source="WsEtE5bpDhkpFEhNQE7J-2" target="WsEtE5bpDhkpFEhNQE7J-7" edge="1"><mxGeometry relative="1" as="geometry"/></mxCell><mxCell id="WsEtE5bpDhkpFEhNQE7J-2" value="A1" style="rounded=0;whiteSpace=wrap;html=1;" parent="WsEtE5bpDhkpFEhNQE7J-1" vertex="1"><mxGeometry x="80" y="80" width="120" height="60" as="geometry"/></mxCell><mxCell id="WsEtE5bpDhkpFEhNQE7J-3" value="B1" style="whiteSpace=wrap;html=1;rounded=0;" parent="WsEtE5bpDhkpFEhNQE7J-1" vertex="1"><mxGeometry x="80" y="220" width="120" height="60" as="geometry"/></mxCell><mxCell id="WsEtE5bpDhkpFEhNQE7J-5" value="" style="edgeStyle=orthogonalEdgeStyle;rounded=0;orthogonalLoop=1;jettySize=auto;html=1;" parent="WsEtE5bpDhkpFEhNQE7J-1" source="WsEtE5bpDhkpFEhNQE7J-6" target="WsEtE5bpDhkpFEhNQE7J-7" edge="1"><mxGeometry relative="1" as="geometry"/></mxCell><mxCell id="WsEtE5bpDhkpFEhNQE7J-9" style="edgeStyle=none;rounded=0;orthogonalLoop=1;jettySize=auto;html=1;entryX=0.75;entryY=0;entryDx=0;entryDy=0;" parent="WsEtE5bpDhkpFEhNQE7J-1" source="WsEtE5bpDhkpFEhNQE7J-6" target="WsEtE5bpDhkpFEhNQE7J-3" edge="1"><mxGeometry relative="1" as="geometry"/></mxCell><mxCell id="WsEtE5bpDhkpFEhNQE7J-6" value="A2" style="rounded=0;whiteSpace=wrap;html=1;" parent="WsEtE5bpDhkpFEhNQE7J-1" vertex="1"><mxGeometry x="300" y="80" width="120" height="60" as="geometry"/></mxCell><mxCell id="WsEtE5bpDhkpFEhNQE7J-7" value="B2" style="whiteSpace=wrap;html=1;rounded=0;" parent="WsEtE5bpDhkpFEhNQE7J-1" vertex="1"><mxGeometry x="300" y="220" width="120" height="60" as="geometry"/></mxCell></root></mxGraphModel></diagram><diagram id="WMayHYMWM2Mx-8Hi5PwG" name="0003"><mxGraphModel dx="988" dy="729" grid="1" gridSize="10" guides="1" tooltips="1" connect="1" arrows="1" fold="1" page="1" pageScale="1" pageWidth="827" pageHeight="1169" math="0" shadow="0"><root><mxCell id="nlXYqhdNusiQO3O8TCGi-0"/><mxCell id="nlXYqhdNusiQO3O8TCGi-1" parent="nlXYqhdNusiQO3O8TCGi-0"/><mxCell id="VdPlXLO7gHs23WJZOi9A-0" value="" style="edgeStyle=orthogonalEdgeStyle;rounded=0;orthogonalLoop=1;jettySize=auto;html=1;" parent="nlXYqhdNusiQO3O8TCGi-1" source="VdPlXLO7gHs23WJZOi9A-2" target="VdPlXLO7gHs23WJZOi9A-3" edge="1"><mxGeometry relative="1" as="geometry"/></mxCell><mxCell id="VdPlXLO7gHs23WJZOi9A-1" style="orthogonalLoop=1;jettySize=auto;html=1;rounded=0;entryX=0.25;entryY=0;entryDx=0;entryDy=0;" parent="nlXYqhdNusiQO3O8TCGi-1" source="VdPlXLO7gHs23WJZOi9A-2" target="VdPlXLO7gHs23WJZOi9A-7" edge="1"><mxGeometry relative="1" as="geometry"/></mxCell><mxCell id="VdPlXLO7gHs23WJZOi9A-2" value="A1" style="rounded=0;whiteSpace=wrap;html=1;" parent="nlXYqhdNusiQO3O8TCGi-1" vertex="1"><mxGeometry x="80" y="80" width="120" height="60" as="geometry"/></mxCell><mxCell id="VdPlXLO7gHs23WJZOi9A-3" value="B1" style="whiteSpace=wrap;html=1;rounded=0;fillColor=#999999;" parent="nlXYqhdNusiQO3O8TCGi-1" vertex="1"><mxGeometry x="80" y="220" width="120" height="60" as="geometry"/></mxCell><mxCell id="VdPlXLO7gHs23WJZOi9A-4" value="" style="edgeStyle=orthogonalEdgeStyle;rounded=0;orthogonalLoop=1;jettySize=auto;html=1;" parent="nlXYqhdNusiQO3O8TCGi-1" source="VdPlXLO7gHs23WJZOi9A-6" target="VdPlXLO7gHs23WJZOi9A-7" edge="1"><mxGeometry relative="1" as="geometry"/></mxCell><mxCell id="VdPlXLO7gHs23WJZOi9A-5" style="edgeStyle=none;rounded=0;orthogonalLoop=1;jettySize=auto;html=1;entryX=0.75;entryY=0;entryDx=0;entryDy=0;" parent="nlXYqhdNusiQO3O8TCGi-1" source="VdPlXLO7gHs23WJZOi9A-6" target="VdPlXLO7gHs23WJZOi9A-3" edge="1"><mxGeometry relative="1" as="geometry"/></mxCell><mxCell id="VdPlXLO7gHs23WJZOi9A-6" value="A2" style="rounded=0;whiteSpace=wrap;html=1;" parent="nlXYqhdNusiQO3O8TCGi-1" vertex="1"><mxGeometry x="300" y="80" width="120" height="60" as="geometry"/></mxCell><mxCell id="VdPlXLO7gHs23WJZOi9A-7" value="B2" style="whiteSpace=wrap;html=1;rounded=0;" parent="nlXYqhdNusiQO3O8TCGi-1" vertex="1"><mxGeometry x="300" y="220" width="120" height="60" as="geometry"/></mxCell></root></mxGraphModel></diagram><diagram id="whruS6IfaM11hJSJHBQJ" name="0004"><mxGraphModel dx="988" dy="729" grid="1" gridSize="10" guides="1" tooltips="1" connect="1" arrows="1" fold="1" page="1" pageScale="1" pageWidth="827" pageHeight="1169" math="0" shadow="0"><root><mxCell id="wCv3o4SlWXgTBWyX9Gei-0"/><mxCell id="wCv3o4SlWXgTBWyX9Gei-1" parent="wCv3o4SlWXgTBWyX9Gei-0"/><mxCell id="wCv3o4SlWXgTBWyX9Gei-3" style="orthogonalLoop=1;jettySize=auto;html=1;rounded=0;entryX=0.25;entryY=0;entryDx=0;entryDy=0;" parent="wCv3o4SlWXgTBWyX9Gei-1" source="wCv3o4SlWXgTBWyX9Gei-4" target="wCv3o4SlWXgTBWyX9Gei-9" edge="1"><mxGeometry relative="1" as="geometry"/></mxCell><mxCell id="wCv3o4SlWXgTBWyX9Gei-4" value="A1" style="rounded=0;whiteSpace=wrap;html=1;" parent="wCv3o4SlWXgTBWyX9Gei-1" vertex="1"><mxGeometry x="80" y="80" width="120" height="60" as="geometry"/></mxCell><mxCell id="wCv3o4SlWXgTBWyX9Gei-5" value="B1" style="whiteSpace=wrap;html=1;rounded=0;fillColor=#999999;" parent="wCv3o4SlWXgTBWyX9Gei-1" vertex="1"><mxGeometry x="80" y="220" width="120" height="60" as="geometry"/></mxCell><mxCell id="wCv3o4SlWXgTBWyX9Gei-6" value="" style="edgeStyle=orthogonalEdgeStyle;rounded=0;orthogonalLoop=1;jettySize=auto;html=1;" parent="wCv3o4SlWXgTBWyX9Gei-1" source="wCv3o4SlWXgTBWyX9Gei-8" target="wCv3o4SlWXgTBWyX9Gei-9" edge="1"><mxGeometry relative="1" as="geometry"/></mxCell><mxCell id="wCv3o4SlWXgTBWyX9Gei-8" value="A2" style="rounded=0;whiteSpace=wrap;html=1;" parent="wCv3o4SlWXgTBWyX9Gei-1" vertex="1"><mxGeometry x="300" y="80" width="120" height="60" as="geometry"/></mxCell><mxCell id="wCv3o4SlWXgTBWyX9Gei-9" value="B2" style="whiteSpace=wrap;html=1;rounded=0;" parent="wCv3o4SlWXgTBWyX9Gei-1" vertex="1"><mxGeometry x="300" y="220" width="120" height="60" as="geometry"/></mxCell></root></mxGraphModel></diagram><diagram id="10RZBvvFVVOkSNxmEa7N" name="0005"><mxGraphModel dx="988" dy="729" grid="1" gridSize="10" guides="1" tooltips="1" connect="1" arrows="1" fold="1" page="1" pageScale="1" pageWidth="827" pageHeight="1169" math="0" shadow="0"><root><mxCell id="ItrCaoKCvuWHH2otRVX0-0"/><mxCell id="ItrCaoKCvuWHH2otRVX0-1" parent="ItrCaoKCvuWHH2otRVX0-0"/><mxCell id="ItrCaoKCvuWHH2otRVX0-2" style="orthogonalLoop=1;jettySize=auto;html=1;rounded=0;entryX=0.25;entryY=0;entryDx=0;entryDy=0;" parent="ItrCaoKCvuWHH2otRVX0-1" source="ItrCaoKCvuWHH2otRVX0-3" target="ItrCaoKCvuWHH2otRVX0-7" edge="1"><mxGeometry relative="1" as="geometry"/></mxCell><mxCell id="ItrCaoKCvuWHH2otRVX0-9" value="" style="edgeStyle=orthogonalEdgeStyle;rounded=0;orthogonalLoop=1;jettySize=auto;html=1;entryX=0;entryY=0.5;entryDx=0;entryDy=0;" parent="ItrCaoKCvuWHH2otRVX0-1" source="ItrCaoKCvuWHH2otRVX0-3" target="ItrCaoKCvuWHH2otRVX0-8" edge="1"><mxGeometry relative="1" as="geometry"><Array as="points"><mxPoint x="40" y="110"/><mxPoint x="40" y="360"/></Array></mxGeometry></mxCell><mxCell id="ItrCaoKCvuWHH2otRVX0-3" value="A1" style="rounded=0;whiteSpace=wrap;html=1;" parent="ItrCaoKCvuWHH2otRVX0-1" vertex="1"><mxGeometry x="70" y="80" width="120" height="60" as="geometry"/></mxCell><mxCell id="ItrCaoKCvuWHH2otRVX0-4" value="B1" style="whiteSpace=wrap;html=1;rounded=0;fillColor=#999999;" parent="ItrCaoKCvuWHH2otRVX0-1" vertex="1"><mxGeometry x="70" y="220" width="120" height="60" as="geometry"/></mxCell><mxCell id="ItrCaoKCvuWHH2otRVX0-5" value="" style="edgeStyle=orthogonalEdgeStyle;rounded=0;orthogonalLoop=1;jettySize=auto;html=1;" parent="ItrCaoKCvuWHH2otRVX0-1" source="ItrCaoKCvuWHH2otRVX0-6" target="ItrCaoKCvuWHH2otRVX0-7" edge="1"><mxGeometry relative="1" as="geometry"/></mxCell><mxCell id="ItrCaoKCvuWHH2otRVX0-10" value="" style="edgeStyle=orthogonalEdgeStyle;rounded=0;orthogonalLoop=1;jettySize=auto;html=1;entryX=1;entryY=0.5;entryDx=0;entryDy=0;" parent="ItrCaoKCvuWHH2otRVX0-1" source="ItrCaoKCvuWHH2otRVX0-6" target="ItrCaoKCvuWHH2otRVX0-8" edge="1"><mxGeometry relative="1" as="geometry"><Array as="points"><mxPoint x="450" y="110"/><mxPoint x="450" y="360"/></Array></mxGeometry></mxCell><mxCell id="ItrCaoKCvuWHH2otRVX0-6" value="A2" style="rounded=0;whiteSpace=wrap;html=1;" parent="ItrCaoKCvuWHH2otRVX0-1" vertex="1"><mxGeometry x="290" y="80" width="120" height="60" as="geometry"/></mxCell><mxCell id="ItrCaoKCvuWHH2otRVX0-7" value="B2" style="whiteSpace=wrap;html=1;rounded=0;" parent="ItrCaoKCvuWHH2otRVX0-1" vertex="1"><mxGeometry x="290" y="220" width="120" height="60" as="geometry"/></mxCell><mxCell id="ItrCaoKCvuWHH2otRVX0-8" value="B3" style="whiteSpace=wrap;html=1;rounded=0;fillColor=#FFFFFF;" parent="ItrCaoKCvuWHH2otRVX0-1" vertex="1"><mxGeometry x="180" y="330" width="120" height="60" as="geometry"/></mxCell></root></mxGraphModel></diagram><diagram id="m4_9xy4g3kfvLCasHejF" name="0006"><mxGraphModel dx="988" dy="729" grid="1" gridSize="10" guides="1" tooltips="1" connect="1" arrows="1" fold="1" page="1" pageScale="1" pageWidth="827" pageHeight="1169" math="0" shadow="0"><root><mxCell id="7vYYvRsD2BWveHccVIAg-0"/><mxCell id="7vYYvRsD2BWveHccVIAg-1" parent="7vYYvRsD2BWveHccVIAg-0"/><mxCell id="Yo_ms1N4LcnHvGR7-mRW-0" style="orthogonalLoop=1;jettySize=auto;html=1;rounded=0;entryX=0.25;entryY=0;entryDx=0;entryDy=0;" parent="7vYYvRsD2BWveHccVIAg-1" source="Yo_ms1N4LcnHvGR7-mRW-2" target="Yo_ms1N4LcnHvGR7-mRW-7" edge="1"><mxGeometry relative="1" as="geometry"/></mxCell><mxCell id="Yo_ms1N4LcnHvGR7-mRW-1" value="" style="edgeStyle=orthogonalEdgeStyle;rounded=0;orthogonalLoop=1;jettySize=auto;html=1;entryX=0;entryY=0.5;entryDx=0;entryDy=0;" parent="7vYYvRsD2BWveHccVIAg-1" source="Yo_ms1N4LcnHvGR7-mRW-2" target="Yo_ms1N4LcnHvGR7-mRW-8" edge="1"><mxGeometry relative="1" as="geometry"><Array as="points"><mxPoint x="40" y="110"/><mxPoint x="40" y="360"/></Array></mxGeometry></mxCell><mxCell id="Yo_ms1N4LcnHvGR7-mRW-2" value="A1" style="rounded=0;whiteSpace=wrap;html=1;" parent="7vYYvRsD2BWveHccVIAg-1" vertex="1"><mxGeometry x="70" y="80" width="120" height="60" as="geometry"/></mxCell><mxCell id="Yo_ms1N4LcnHvGR7-mRW-4" value="" style="edgeStyle=orthogonalEdgeStyle;rounded=0;orthogonalLoop=1;jettySize=auto;html=1;" parent="7vYYvRsD2BWveHccVIAg-1" source="Yo_ms1N4LcnHvGR7-mRW-6" target="Yo_ms1N4LcnHvGR7-mRW-7" edge="1"><mxGeometry relative="1" as="geometry"/></mxCell><mxCell id="Yo_ms1N4LcnHvGR7-mRW-5" value="" style="edgeStyle=orthogonalEdgeStyle;rounded=0;orthogonalLoop=1;jettySize=auto;html=1;entryX=1;entryY=0.5;entryDx=0;entryDy=0;" parent="7vYYvRsD2BWveHccVIAg-1" source="Yo_ms1N4LcnHvGR7-mRW-6" target="Yo_ms1N4LcnHvGR7-mRW-8" edge="1"><mxGeometry relative="1" as="geometry"><Array as="points"><mxPoint x="450" y="110"/><mxPoint x="450" y="360"/></Array></mxGeometry></mxCell><mxCell id="Yo_ms1N4LcnHvGR7-mRW-6" value="A2" style="rounded=0;whiteSpace=wrap;html=1;" parent="7vYYvRsD2BWveHccVIAg-1" vertex="1"><mxGeometry x="290" y="80" width="120" height="60" as="geometry"/></mxCell><mxCell id="Yo_ms1N4LcnHvGR7-mRW-7" value="B2" style="whiteSpace=wrap;html=1;rounded=0;" parent="7vYYvRsD2BWveHccVIAg-1" vertex="1"><mxGeometry x="290" y="220" width="120" height="60" as="geometry"/></mxCell><mxCell id="Yo_ms1N4LcnHvGR7-mRW-8" value="B3" style="whiteSpace=wrap;html=1;rounded=0;fillColor=#FFFFFF;" parent="7vYYvRsD2BWveHccVIAg-1" vertex="1"><mxGeometry x="180" y="330" width="120" height="60" as="geometry"/></mxCell></root></mxGraphModel></diagram></mxfile>